<svg xmlns="http://www.w3.org/2000/svg" xmlns:xlink="http://www.w3.org/1999/xlink" width="2000" zoomAndPan="magnify" viewBox="0 0 1500 1499.999933" height="2000" preserveAspectRatio="xMidYMid meet" version="1.0"><defs><g/><clipPath id="40c1743f7a"><rect x="0" width="701" y="0" height="142"/></clipPath><clipPath id="f92b386f00"><rect x="0" width="503" y="0" height="91"/></clipPath><clipPath id="58212999b3"><path d="M 845 616 L 889 616 L 889 639 L 845 639 Z M 845 616 " clip-rule="nonzero"/></clipPath><clipPath id="265013475a"><path d="M 845.773438 616.53125 L 866.789062 595.515625 L 888.785156 617.515625 L 867.773438 638.527344 Z M 845.773438 616.53125 " clip-rule="nonzero"/></clipPath><clipPath id="c8fa26d223"><path d="M 888.734375 617.464844 L 867.722656 638.476562 L 845.773438 616.53125 Z M 888.734375 617.464844 " clip-rule="nonzero"/></clipPath><clipPath id="b2eea2b706"><path d="M 0.761719 0.320312 L 43.960938 0.320312 L 43.960938 22.640625 L 0.761719 22.640625 Z M 0.761719 0.320312 " clip-rule="nonzero"/></clipPath><clipPath id="9aaa3ba685"><path d="M 0.773438 0.53125 L 21.789062 -20.484375 L 43.785156 1.515625 L 22.773438 22.527344 Z M 0.773438 0.53125 " clip-rule="nonzero"/></clipPath><clipPath id="1c22d60b13"><path d="M 43.734375 1.464844 L 22.722656 22.476562 L 0.773438 0.53125 Z M 43.734375 1.464844 " clip-rule="nonzero"/></clipPath><clipPath id="2c89b42ea5"><rect x="0" width="44" y="0" height="23"/></clipPath><clipPath id="7ffb8aa313"><path d="M 856 751 L 900 751 L 900 774 L 856 774 Z M 856 751 " clip-rule="nonzero"/></clipPath><clipPath id="fe5be3a83f"><path d="M 899.34375 773.101562 L 878.792969 794.566406 L 856.320312 773.054688 L 876.871094 751.589844 Z M 899.34375 773.101562 " clip-rule="nonzero"/></clipPath><clipPath id="7dd1bc58e6"><path d="M 856.371094 773.105469 L 876.921875 751.636719 L 899.34375 773.101562 Z M 856.371094 773.105469 " clip-rule="nonzero"/></clipPath><clipPath id="e81a3a98b3"><path d="M 0.320312 0.441406 L 43.519531 0.441406 L 43.519531 22.28125 L 0.320312 22.28125 Z M 0.320312 0.441406 " clip-rule="nonzero"/></clipPath><clipPath id="5d51d3f048"><path d="M 43.34375 22.101562 L 22.792969 43.566406 L 0.320312 22.054688 L 20.871094 0.589844 Z M 43.34375 22.101562 " clip-rule="nonzero"/></clipPath><clipPath id="9c73d3381a"><path d="M 0.371094 22.105469 L 20.921875 0.636719 L 43.34375 22.101562 Z M 0.371094 22.105469 " clip-rule="nonzero"/></clipPath><clipPath id="85c90035d9"><rect x="0" width="44" y="0" height="23"/></clipPath><clipPath id="b2fa500524"><path d="M 856 727 L 899 727 L 899 748 L 856 748 Z M 856 727 " clip-rule="nonzero"/></clipPath><clipPath id="e6335e484d"><path d="M 856.539062 727.046875 L 876.429688 706.359375 L 898.089844 727.183594 L 878.199219 747.871094 Z M 856.539062 727.046875 " clip-rule="nonzero"/></clipPath><clipPath id="6c3e7dc7ae"><path d="M 898.039062 727.132812 L 878.148438 747.824219 L 856.539062 727.046875 Z M 898.039062 727.132812 " clip-rule="nonzero"/></clipPath><clipPath id="d12ad20aae"><path d="M 0.320312 0 L 42.078125 0 L 42.078125 20.839844 L 0.320312 20.839844 Z M 0.320312 0 " clip-rule="nonzero"/></clipPath><clipPath id="02edd9fb6b"><path d="M 0.539062 0.046875 L 20.429688 -20.640625 L 42.089844 0.183594 L 22.199219 20.871094 Z M 0.539062 0.046875 " clip-rule="nonzero"/></clipPath><clipPath id="b56e9be712"><path d="M 42.039062 0.132812 L 22.148438 20.824219 L 0.539062 0.046875 Z M 42.039062 0.132812 " clip-rule="nonzero"/></clipPath><clipPath id="037ed9209f"><rect x="0" width="43" y="0" height="21"/></clipPath><clipPath id="144c8ab7f0"><path d="M 1168.582031 815.46875 L 1191.019531 815.46875 L 1191.019531 837.910156 L 1168.582031 837.910156 Z M 1168.582031 815.46875 " clip-rule="nonzero"/></clipPath><clipPath id="597ddefa4b"><path d="M 1179.800781 815.46875 L 1183.371094 823.121094 L 1191.019531 826.691406 L 1183.371094 830.257812 L 1179.800781 837.910156 L 1176.230469 830.257812 L 1168.582031 826.691406 L 1176.230469 823.121094 Z M 1179.800781 815.46875 " clip-rule="nonzero"/></clipPath><clipPath id="d25919aa52"><path d="M 0.582031 0.46875 L 23.019531 0.46875 L 23.019531 22.910156 L 0.582031 22.910156 Z M 0.582031 0.46875 " clip-rule="nonzero"/></clipPath><clipPath id="5670cf0635"><path d="M 11.800781 0.46875 L 15.371094 8.121094 L 23.019531 11.691406 L 15.371094 15.257812 L 11.800781 22.910156 L 8.230469 15.257812 L 0.582031 11.691406 L 8.230469 8.121094 Z M 11.800781 0.46875 " clip-rule="nonzero"/></clipPath><clipPath id="29214d3d0d"><rect x="0" width="24" y="0" height="23"/></clipPath><clipPath id="fec09bd756"><path d="M 581.242188 815.46875 L 603.679688 815.46875 L 603.679688 837.910156 L 581.242188 837.910156 Z M 581.242188 815.46875 " clip-rule="nonzero"/></clipPath><clipPath id="ae79fc3150"><path d="M 592.460938 815.46875 L 596.027344 823.121094 L 603.679688 826.691406 L 596.027344 830.257812 L 592.460938 837.910156 L 588.890625 830.257812 L 581.242188 826.691406 L 588.890625 823.121094 Z M 592.460938 815.46875 " clip-rule="nonzero"/></clipPath><clipPath id="8d5d10e2ec"><path d="M 0.242188 0.46875 L 22.679688 0.46875 L 22.679688 22.910156 L 0.242188 22.910156 Z M 0.242188 0.46875 " clip-rule="nonzero"/></clipPath><clipPath id="2b55a81564"><path d="M 11.460938 0.46875 L 15.027344 8.121094 L 22.679688 11.691406 L 15.027344 15.257812 L 11.460938 22.910156 L 7.890625 15.257812 L 0.242188 11.691406 L 7.890625 8.121094 Z M 11.460938 0.46875 " clip-rule="nonzero"/></clipPath><clipPath id="a802f73ac5"><rect x="0" width="23" y="0" height="23"/></clipPath><clipPath id="b3a9552b2e"><rect x="0" width="539" y="0" height="39"/></clipPath></defs><g transform="matrix(1, 0, 0, 1, 553, 584)"><g clip-path="url(#40c1743f7a)"><g fill="#000000" fill-opacity="1"><g transform="translate(0.976988, 105.004984)"><g><path d="M 12.09375 0 L 12.09375 -72.90625 L 49.328125 -72.90625 C 55.742188 -72.90625 61.101562 -72.078125 65.40625 -70.421875 C 69.71875 -68.773438 72.976562 -66.3125 75.1875 -63.03125 C 77.394531 -59.757812 78.5 -55.675781 78.5 -50.78125 C 78.5 -46.019531 77.394531 -41.96875 75.1875 -38.625 C 72.976562 -35.28125 69.71875 -32.765625 65.40625 -31.078125 C 61.101562 -29.390625 55.742188 -28.546875 49.328125 -28.546875 L 22.03125 -28.546875 L 22.03125 0 Z M 22.03125 -36.609375 L 48.40625 -36.609375 C 55.300781 -36.609375 60.367188 -37.726562 63.609375 -39.96875 C 66.847656 -42.207031 68.46875 -45.8125 68.46875 -50.78125 C 68.46875 -55.738281 66.863281 -59.320312 63.65625 -61.53125 C 60.445312 -63.738281 55.363281 -64.84375 48.40625 -64.84375 L 22.03125 -64.84375 Z M 22.03125 -36.609375 "/></g></g></g><g fill="#000000" fill-opacity="1"><g transform="translate(136.779428, 105.004984)"><g><path d="M 12.09375 0 L 12.09375 -72.90625 L 49.234375 -72.90625 C 58.671875 -72.90625 65.890625 -71.144531 70.890625 -67.625 C 75.890625 -64.113281 78.390625 -58.984375 78.390625 -52.234375 C 78.390625 -47.890625 77.300781 -44.164062 75.125 -41.0625 C 72.957031 -37.957031 69.820312 -35.5625 65.71875 -33.875 C 61.625 -32.1875 56.644531 -31.238281 50.78125 -31.03125 L 51.8125 -31.859375 L 53.984375 -31.75 C 56.804688 -31.613281 59.320312 -30.890625 61.53125 -29.578125 C 63.738281 -28.265625 65.804688 -26.265625 67.734375 -23.578125 L 83.984375 0 L 72.703125 0 L 57.40625 -22.75 C 56.09375 -24.613281 54.78125 -26.078125 53.46875 -27.140625 C 52.15625 -28.210938 50.535156 -28.957031 48.609375 -29.375 C 46.679688 -29.789062 44.195312 -30 41.15625 -30 L 22.03125 -30 L 22.03125 0 Z M 22.03125 -37.75 L 48.5 -37.75 C 55.46875 -37.75 60.535156 -38.882812 63.703125 -41.15625 C 66.878906 -43.4375 68.46875 -46.882812 68.46875 -51.5 C 68.46875 -56.1875 66.863281 -59.582031 63.65625 -61.6875 C 60.445312 -63.789062 55.328125 -64.84375 48.296875 -64.84375 L 22.03125 -64.84375 Z M 22.03125 -37.75 "/></g></g></g><g fill="#000000" fill-opacity="1"><g transform="translate(276.201828, 105.004984)"><g><path d="M 33.515625 0 L 33.515625 -37.03125 L 35.578125 -31.03125 L -0.9375 -72.90625 L 10.859375 -72.90625 L 39.5 -40.125 L 37.953125 -40.125 L 66.8125 -72.90625 L 77.984375 -72.90625 L 41.578125 -31.03125 L 43.4375 -37.03125 L 43.4375 0 Z M 33.515625 0 "/></g></g></g><g fill="#000000" fill-opacity="1"><g transform="translate(402.385495, 105.004984)"><g><path d="M 41.375 0.9375 C 36.75 0.9375 32.296875 0.59375 28.015625 -0.09375 C 23.742188 -0.789062 19.796875 -1.828125 16.171875 -3.203125 C 12.554688 -4.585938 9.375 -6.3125 6.625 -8.375 L 10.546875 -16.140625 C 13.722656 -14.066406 16.910156 -12.390625 20.109375 -11.109375 C 23.316406 -9.835938 26.695312 -8.925781 30.25 -8.375 C 33.800781 -7.820312 37.609375 -7.546875 41.671875 -7.546875 C 49.054688 -7.546875 54.765625 -8.546875 58.796875 -10.546875 C 62.828125 -12.546875 64.84375 -15.507812 64.84375 -19.4375 C 64.84375 -21.988281 64.1875 -23.988281 62.875 -25.4375 C 61.570312 -26.882812 59.695312 -27.988281 57.25 -28.75 C 54.800781 -29.507812 51.816406 -30.128906 48.296875 -30.609375 L 31.75 -32.78125 C 23.6875 -33.882812 17.804688 -36.054688 14.109375 -39.296875 C 10.421875 -42.535156 8.578125 -46.914062 8.578125 -52.4375 C 8.578125 -56.84375 9.957031 -60.648438 12.71875 -63.859375 C 15.476562 -67.066406 19.320312 -69.53125 24.25 -71.25 C 29.175781 -72.976562 34.953125 -73.84375 41.578125 -73.84375 C 45.847656 -73.84375 49.878906 -73.476562 53.671875 -72.75 C 57.460938 -72.03125 60.941406 -70.945312 64.109375 -69.5 C 67.285156 -68.050781 70.117188 -66.257812 72.609375 -64.125 L 68.671875 -56.46875 C 64.742188 -59.632812 60.609375 -61.90625 56.265625 -63.28125 C 51.921875 -64.664062 46.921875 -65.359375 41.265625 -65.359375 C 36.578125 -65.359375 32.523438 -64.875 29.109375 -63.90625 C 25.703125 -62.945312 23.097656 -61.550781 21.296875 -59.71875 C 19.503906 -57.894531 18.609375 -55.601562 18.609375 -52.84375 C 18.609375 -49.46875 19.816406 -46.914062 22.234375 -45.1875 C 24.648438 -43.46875 28.546875 -42.226562 33.921875 -41.46875 L 49.953125 -39.203125 C 58.222656 -38.097656 64.425781 -36.023438 68.5625 -32.984375 C 72.707031 -29.953125 74.78125 -25.578125 74.78125 -19.859375 C 74.78125 -15.578125 73.453125 -11.867188 70.796875 -8.734375 C 68.140625 -5.597656 64.3125 -3.203125 59.3125 -1.546875 C 54.3125 0.109375 48.332031 0.9375 41.375 0.9375 Z M 41.375 0.9375 "/></g></g></g><g fill="#000000" fill-opacity="1"><g transform="translate(535.085141, 105.004984)"><g><path d="M 12.3125 0 L 12.3125 -72.90625 L 22.234375 -72.90625 L 57.609375 -19.65625 L 55.125 -19.65625 L 90.390625 -72.90625 L 100.3125 -72.90625 L 100.3125 0 L 90.90625 0 L 90.90625 -60.296875 L 92.15625 -60.296875 L 59.671875 -11.375 L 53.15625 -11.375 L 20.265625 -60.390625 L 21.71875 -60.390625 L 21.71875 0 Z M 12.3125 0 "/></g></g></g></g></g><g transform="matrix(1, 0, 0, 1, 649, 706)"><g clip-path="url(#f92b386f00)"><g fill="#000000" fill-opacity="1"><g transform="translate(0.649626, 66.465883)"><g><path d="M 7.640625 0 L 7.640625 -46 L 12.984375 -46 L 49.0625 -7.765625 L 48.15625 -7.765625 L 48.15625 -46 L 54.21875 -46 L 54.21875 0 L 48.734375 0 L 12.859375 -38.171875 L 13.703125 -38.171875 L 13.703125 0 Z M 7.640625 0 "/></g></g></g><g fill="#000000" fill-opacity="1"><g transform="translate(108.183253, 66.465883)"><g><path d="M 7.640625 0 L 7.640625 -46 L 43.984375 -46 L 43.984375 -40.84375 L 13.765625 -40.84375 L 13.765625 -25.90625 L 41.6875 -25.90625 L 41.6875 -20.8125 L 13.765625 -20.8125 L 13.765625 -5.15625 L 43.984375 -5.15625 L 43.984375 0 Z M 7.640625 0 "/></g></g></g><g fill="#000000" fill-opacity="1"><g transform="translate(201.818646, 66.465883)"><g><path d="M 1.234375 0 L 23.296875 -24.734375 L 23.359375 -22.375 L 2.28125 -46 L 10.109375 -46 L 27.203125 -26.8125 L 26.09375 -26.8125 L 43.125 -46 L 50.765625 -46 L 29.75 -22.375 L 29.75 -24.734375 L 51.8125 0 L 43.984375 0 L 25.703125 -20.359375 L 27.140625 -20.359375 L 8.875 0 Z M 1.234375 0 "/></g></g></g><g fill="#000000" fill-opacity="1"><g transform="translate(299.760525, 66.465883)"><g><path d="M 29.953125 0.59375 C 22.335938 0.59375 16.613281 -0.972656 12.78125 -4.109375 C 8.957031 -7.242188 7.046875 -11.878906 7.046875 -18.015625 L 7.046875 -46 L 13.375 -46 L 13.375 -18.203125 C 13.375 -13.722656 14.753906 -10.382812 17.515625 -8.1875 C 20.273438 -5.988281 24.398438 -4.890625 29.890625 -4.890625 C 35.453125 -4.890625 39.601562 -5.988281 42.34375 -8.1875 C 45.082031 -10.382812 46.453125 -13.722656 46.453125 -18.203125 L 46.453125 -46 L 52.71875 -46 L 52.71875 -18.015625 C 52.71875 -11.878906 50.8125 -7.242188 47 -4.109375 C 43.195312 -0.972656 37.515625 0.59375 29.953125 0.59375 Z M 29.953125 0.59375 "/></g></g></g><g fill="#000000" fill-opacity="1"><g transform="translate(405.271411, 66.465883)"><g><path d="M 26.09375 0.59375 C 23.1875 0.59375 20.382812 0.375 17.6875 -0.0625 C 14.988281 -0.5 12.492188 -1.148438 10.203125 -2.015625 C 7.921875 -2.890625 5.910156 -3.976562 4.171875 -5.28125 L 6.65625 -10.171875 C 8.65625 -8.867188 10.664062 -7.816406 12.6875 -7.015625 C 14.707031 -6.210938 16.835938 -5.632812 19.078125 -5.28125 C 21.328125 -4.9375 23.734375 -4.765625 26.296875 -4.765625 C 30.953125 -4.765625 34.550781 -5.394531 37.09375 -6.65625 C 39.632812 -7.914062 40.90625 -9.785156 40.90625 -12.265625 C 40.90625 -13.878906 40.492188 -15.140625 39.671875 -16.046875 C 38.847656 -16.960938 37.660156 -17.660156 36.109375 -18.140625 C 34.566406 -18.617188 32.6875 -19.007812 30.46875 -19.3125 L 20.03125 -20.6875 C 14.9375 -21.382812 11.226562 -22.753906 8.90625 -24.796875 C 6.582031 -26.835938 5.421875 -29.597656 5.421875 -33.078125 C 5.421875 -35.859375 6.289062 -38.257812 8.03125 -40.28125 C 9.769531 -42.3125 12.191406 -43.867188 15.296875 -44.953125 C 18.410156 -46.046875 22.054688 -46.59375 26.234375 -46.59375 C 28.929688 -46.59375 31.472656 -46.363281 33.859375 -45.90625 C 36.253906 -45.445312 38.453125 -44.757812 40.453125 -43.84375 C 42.453125 -42.9375 44.238281 -41.804688 45.8125 -40.453125 L 43.328125 -35.625 C 40.847656 -37.625 38.238281 -39.054688 35.5 -39.921875 C 32.757812 -40.796875 29.601562 -41.234375 26.03125 -41.234375 C 23.070312 -41.234375 20.515625 -40.925781 18.359375 -40.3125 C 16.210938 -39.707031 14.570312 -38.828125 13.4375 -37.671875 C 12.3125 -36.523438 11.75 -35.082031 11.75 -33.34375 C 11.75 -31.207031 12.507812 -29.597656 14.03125 -28.515625 C 15.550781 -27.429688 18.007812 -26.648438 21.40625 -26.171875 L 31.515625 -24.734375 C 36.734375 -24.035156 40.644531 -22.726562 43.25 -20.8125 C 45.863281 -18.894531 47.171875 -16.132812 47.171875 -12.53125 C 47.171875 -9.832031 46.332031 -7.492188 44.65625 -5.515625 C 42.988281 -3.535156 40.578125 -2.019531 37.421875 -0.96875 C 34.265625 0.0703125 30.488281 0.59375 26.09375 0.59375 Z M 26.09375 0.59375 "/></g></g></g></g></g><g clip-path="url(#58212999b3)"><g clip-path="url(#265013475a)"><g clip-path="url(#c8fa26d223)"><g transform="matrix(1, 0, 0, 1, 845, 616)"><g clip-path="url(#2c89b42ea5)"><g clip-path="url(#b2eea2b706)"><g clip-path="url(#9aaa3ba685)"><g clip-path="url(#1c22d60b13)"><path fill="#e00202" d="M 0.773438 0.53125 L 21.789062 -20.484375 L 43.703125 1.433594 L 22.691406 22.445312 Z M 0.773438 0.53125 " fill-opacity="1" fill-rule="nonzero"/></g></g></g></g></g></g></g></g><g clip-path="url(#7ffb8aa313)"><g clip-path="url(#fe5be3a83f)"><g clip-path="url(#7dd1bc58e6)"><g transform="matrix(1, 0, 0, 1, 856, 751)"><g clip-path="url(#85c90035d9)"><g clip-path="url(#e81a3a98b3)"><g clip-path="url(#5d51d3f048)"><g clip-path="url(#9c73d3381a)"><path fill="#e00202" d="M 43.34375 22.101562 L 22.792969 43.566406 L 0.402344 22.132812 L 20.953125 0.667969 Z M 43.34375 22.101562 " fill-opacity="1" fill-rule="nonzero"/></g></g></g></g></g></g></g></g><g clip-path="url(#b2fa500524)"><g clip-path="url(#e6335e484d)"><g clip-path="url(#6c3e7dc7ae)"><g transform="matrix(1, 0, 0, 1, 856, 727)"><g clip-path="url(#037ed9209f)"><g clip-path="url(#d12ad20aae)"><g clip-path="url(#02edd9fb6b)"><g clip-path="url(#b56e9be712)"><path fill="#e00202" d="M 0.539062 0.046875 L 20.429688 -20.640625 L 42.007812 0.105469 L 22.117188 20.792969 Z M 0.539062 0.046875 " fill-opacity="1" fill-rule="nonzero"/></g></g></g></g></g></g></g></g><g clip-path="url(#144c8ab7f0)"><g clip-path="url(#597ddefa4b)"><g transform="matrix(1, 0, 0, 1, 1168, 815)"><g clip-path="url(#29214d3d0d)"><g clip-path="url(#d25919aa52)"><g clip-path="url(#5670cf0635)"><path fill="#7b0505" d="M 0.582031 0.46875 L 23.019531 0.46875 L 23.019531 22.910156 L 0.582031 22.910156 Z M 0.582031 0.46875 " fill-opacity="1" fill-rule="nonzero"/></g></g></g></g></g></g><path stroke-linecap="butt" transform="matrix(0.75, 0, 0, 0.75, 1195.706066, 825.564629)" fill="none" stroke-linejoin="miter" d="M 0.00128652 1.50237 L 67.740876 1.50237 " stroke="#7b0505" stroke-width="3" stroke-opacity="1" stroke-miterlimit="4"/><path stroke-linecap="butt" transform="matrix(0.75, 0, 0, 0.75, 525.74706, 826.605845)" fill="none" stroke-linejoin="miter" d="M -0.00128842 1.499499 L 67.743509 1.499499 " stroke="#7b0505" stroke-width="3" stroke-opacity="1" stroke-miterlimit="4"/><g clip-path="url(#fec09bd756)"><g clip-path="url(#ae79fc3150)"><g transform="matrix(1, 0, 0, 1, 581, 815)"><g clip-path="url(#a802f73ac5)"><g clip-path="url(#8d5d10e2ec)"><g clip-path="url(#2b55a81564)"><path fill="#7b0505" d="M 0.242188 0.46875 L 22.679688 0.46875 L 22.679688 22.910156 L 0.242188 22.910156 Z M 0.242188 0.46875 " fill-opacity="1" fill-rule="nonzero"/></g></g></g></g></g></g><g transform="matrix(1, 0, 0, 1, 616, 807)"><g clip-path="url(#b3a9552b2e)"><g fill="#7b0505" fill-opacity="1"><g transform="translate(0.453496, 28.54035)"><g><path d="M 13.5 0.25 C 11.195312 0.25 9.203125 -0.148438 7.515625 -0.953125 C 5.835938 -1.765625 4.546875 -2.914062 3.640625 -4.40625 C 2.734375 -5.90625 2.28125 -7.695312 2.28125 -9.78125 C 2.28125 -11.863281 2.738281 -13.65625 3.65625 -15.15625 C 4.570312 -16.65625 5.867188 -17.804688 7.546875 -18.609375 C 9.234375 -19.421875 11.222656 -19.828125 13.515625 -19.828125 C 15.242188 -19.828125 16.816406 -19.597656 18.234375 -19.140625 C 19.660156 -18.691406 20.875 -18.019531 21.875 -17.125 L 20.765625 -15.078125 C 19.691406 -15.910156 18.585938 -16.515625 17.453125 -16.890625 C 16.328125 -17.273438 15.046875 -17.46875 13.609375 -17.46875 C 10.921875 -17.46875 8.828125 -16.800781 7.328125 -15.46875 C 5.828125 -14.132812 5.078125 -12.238281 5.078125 -9.78125 C 5.078125 -7.289062 5.820312 -5.390625 7.3125 -4.078125 C 8.800781 -2.765625 10.898438 -2.109375 13.609375 -2.109375 C 15.046875 -2.109375 16.328125 -2.296875 17.453125 -2.671875 C 18.585938 -3.054688 19.691406 -3.664062 20.765625 -4.5 L 21.875 -2.4375 C 20.875 -1.570312 19.660156 -0.90625 18.234375 -0.4375 C 16.816406 0.0195312 15.238281 0.25 13.5 0.25 Z M 13.5 0.25 "/></g></g></g><g fill="#7b0505" fill-opacity="1"><g transform="translate(21.748549, 28.54035)"><g><path d="M 13.4375 0.25 C 11.71875 0.25 10.171875 0.0195312 8.796875 -0.4375 C 7.429688 -0.90625 6.257812 -1.570312 5.28125 -2.4375 C 4.3125 -3.3125 3.566406 -4.363281 3.046875 -5.59375 C 2.535156 -6.820312 2.28125 -8.21875 2.28125 -9.78125 C 2.28125 -11.3125 2.535156 -12.695312 3.046875 -13.9375 C 3.566406 -15.175781 4.3125 -16.234375 5.28125 -17.109375 C 6.257812 -17.992188 7.4375 -18.664062 8.8125 -19.125 C 10.195312 -19.59375 11.738281 -19.828125 13.4375 -19.828125 C 15.144531 -19.828125 16.679688 -19.585938 18.046875 -19.109375 C 19.421875 -18.640625 20.59375 -17.972656 21.5625 -17.109375 C 22.53125 -16.253906 23.273438 -15.207031 23.796875 -13.96875 C 24.316406 -12.726562 24.578125 -11.335938 24.578125 -9.796875 C 24.578125 -8.242188 24.316406 -6.851562 23.796875 -5.625 C 23.273438 -4.394531 22.53125 -3.335938 21.5625 -2.453125 C 20.59375 -1.578125 19.421875 -0.90625 18.046875 -0.4375 C 16.679688 0.0195312 15.144531 0.25 13.4375 0.25 Z M 13.4375 -2.046875 C 15.15625 -2.046875 16.640625 -2.351562 17.890625 -2.96875 C 19.140625 -3.582031 20.101562 -4.46875 20.78125 -5.625 C 21.457031 -6.78125 21.796875 -8.171875 21.796875 -9.796875 C 21.796875 -11.429688 21.460938 -12.828125 20.796875 -13.984375 C 20.128906 -15.140625 19.171875 -16.015625 17.921875 -16.609375 C 16.671875 -17.210938 15.175781 -17.515625 13.4375 -17.515625 C 11.675781 -17.515625 10.175781 -17.207031 8.9375 -16.59375 C 7.695312 -15.988281 6.738281 -15.109375 6.0625 -13.953125 C 5.382812 -12.796875 5.046875 -11.40625 5.046875 -9.78125 C 5.046875 -8.144531 5.378906 -6.753906 6.046875 -5.609375 C 6.710938 -4.460938 7.675781 -3.582031 8.9375 -2.96875 C 10.195312 -2.351562 11.695312 -2.046875 13.4375 -2.046875 Z M 13.4375 -2.046875 "/></g></g></g><g fill="#7b0505" fill-opacity="1"><g transform="translate(47.041692, 28.54035)"><g><path d="M 3.25 0 L 3.25 -19.578125 L 5.53125 -19.578125 L 20.875 -3.296875 L 20.484375 -3.296875 L 20.484375 -19.578125 L 23.078125 -19.578125 L 23.078125 0 L 20.734375 0 L 5.46875 -16.25 L 5.828125 -16.25 L 5.828125 0 Z M 3.25 0 "/></g></g></g><g fill="#7b0505" fill-opacity="1"><g transform="translate(71.807315, 28.54035)"><g><path d="M 3.25 0 L 3.25 -19.578125 L 5.53125 -19.578125 L 20.875 -3.296875 L 20.484375 -3.296875 L 20.484375 -19.578125 L 23.078125 -19.578125 L 23.078125 0 L 20.734375 0 L 5.46875 -16.25 L 5.828125 -16.25 L 5.828125 0 Z M 3.25 0 "/></g></g></g><g fill="#7b0505" fill-opacity="1"><g transform="translate(96.572939, 28.54035)"><g><path d="M 3.25 0 L 3.25 -19.578125 L 18.71875 -19.578125 L 18.71875 -17.375 L 5.859375 -17.375 L 5.859375 -11.015625 L 17.734375 -11.015625 L 17.734375 -8.859375 L 5.859375 -8.859375 L 5.859375 -2.1875 L 18.71875 -2.1875 L 18.71875 0 Z M 3.25 0 "/></g></g></g><g fill="#7b0505" fill-opacity="1"><g transform="translate(115.563578, 28.54035)"><g><path d="M 13.5 0.25 C 11.195312 0.25 9.203125 -0.148438 7.515625 -0.953125 C 5.835938 -1.765625 4.546875 -2.914062 3.640625 -4.40625 C 2.734375 -5.90625 2.28125 -7.695312 2.28125 -9.78125 C 2.28125 -11.863281 2.738281 -13.65625 3.65625 -15.15625 C 4.570312 -16.65625 5.867188 -17.804688 7.546875 -18.609375 C 9.234375 -19.421875 11.222656 -19.828125 13.515625 -19.828125 C 15.242188 -19.828125 16.816406 -19.597656 18.234375 -19.140625 C 19.660156 -18.691406 20.875 -18.019531 21.875 -17.125 L 20.765625 -15.078125 C 19.691406 -15.910156 18.585938 -16.515625 17.453125 -16.890625 C 16.328125 -17.273438 15.046875 -17.46875 13.609375 -17.46875 C 10.921875 -17.46875 8.828125 -16.800781 7.328125 -15.46875 C 5.828125 -14.132812 5.078125 -12.238281 5.078125 -9.78125 C 5.078125 -7.289062 5.820312 -5.390625 7.3125 -4.078125 C 8.800781 -2.765625 10.898438 -2.109375 13.609375 -2.109375 C 15.046875 -2.109375 16.328125 -2.296875 17.453125 -2.671875 C 18.585938 -3.054688 19.691406 -3.664062 20.765625 -4.5 L 21.875 -2.4375 C 20.875 -1.570312 19.660156 -0.90625 18.234375 -0.4375 C 16.816406 0.0195312 15.238281 0.25 13.5 0.25 Z M 13.5 0.25 "/></g></g></g><g fill="#7b0505" fill-opacity="1"><g transform="translate(137.219585, 28.54035)"><g><path d="M 9.21875 0 L 9.21875 -17.328125 L 0.28125 -17.328125 L 0.28125 -19.578125 L 20.828125 -19.578125 L 20.828125 -17.328125 L 11.890625 -17.328125 L 11.890625 0 Z M 9.21875 0 "/></g></g></g><g fill="#7b0505" fill-opacity="1"><g transform="translate(156.76551, 28.54035)"><g/></g></g><g fill="#7b0505" fill-opacity="1"><g transform="translate(164.178442, 28.54035)"><g><path d="M 2.359375 0 L 2.359375 -3.140625 L 5.640625 -3.140625 L 5.640625 0 Z M 2.359375 0 "/></g></g></g><g fill="#7b0505" fill-opacity="1"><g transform="translate(170.619604, 28.54035)"><g/></g></g><g fill="#7b0505" fill-opacity="1"><g transform="translate(178.032536, 28.54035)"><g><path d="M 3.25 0 L 3.25 -19.578125 L 18.71875 -19.578125 L 18.71875 -17.375 L 5.859375 -17.375 L 5.859375 -11.015625 L 17.734375 -11.015625 L 17.734375 -8.859375 L 5.859375 -8.859375 L 5.859375 -2.1875 L 18.71875 -2.1875 L 18.71875 0 Z M 3.25 0 "/></g></g></g><g fill="#7b0505" fill-opacity="1"><g transform="translate(197.161993, 28.54035)"><g><path d="M 3.25 0 L 3.25 -19.578125 L 5.90625 -19.578125 L 5.90625 -2.28125 L 18.4375 -2.28125 L 18.4375 0 Z M 3.25 0 "/></g></g></g><g fill="#7b0505" fill-opacity="1"><g transform="translate(214.681139, 28.54035)"><g><path d="M 3.25 0 L 3.25 -19.578125 L 18.71875 -19.578125 L 18.71875 -17.375 L 5.859375 -17.375 L 5.859375 -11.015625 L 17.734375 -11.015625 L 17.734375 -8.859375 L 5.859375 -8.859375 L 5.859375 -2.1875 L 18.71875 -2.1875 L 18.71875 0 Z M 3.25 0 "/></g></g></g><g fill="#7b0505" fill-opacity="1"><g transform="translate(233.560718, 28.54035)"><g><path d="M 10.546875 0 L -0.03125 -19.578125 L 3 -19.578125 L 12.140625 -2.4375 L 11.546875 -2.4375 L 20.6875 -19.578125 L 23.59375 -19.578125 L 13.046875 0 Z M 10.546875 0 "/></g></g></g><g fill="#7b0505" fill-opacity="1"><g transform="translate(253.745153, 28.54035)"><g><path d="M 0.828125 0 L 11.5 -19.578125 L 13.9375 -19.578125 L 24.59375 0 L 21.765625 0 L 18.765625 -5.578125 L 20.15625 -4.796875 L 5.21875 -4.796875 L 6.640625 -5.578125 L 3.609375 0 Z M 12.65625 -16.96875 L 7.046875 -6.390625 L 6.140625 -6.96875 L 19.234375 -6.96875 L 18.328125 -6.390625 L 12.75 -16.96875 Z M 12.65625 -16.96875 "/></g></g></g><g fill="#7b0505" fill-opacity="1"><g transform="translate(274.984612, 28.54035)"><g><path d="M 9.21875 0 L 9.21875 -17.328125 L 0.28125 -17.328125 L 0.28125 -19.578125 L 20.828125 -19.578125 L 20.828125 -17.328125 L 11.890625 -17.328125 L 11.890625 0 Z M 9.21875 0 "/></g></g></g><g fill="#7b0505" fill-opacity="1"><g transform="translate(294.530553, 28.54035)"><g><path d="M 3.25 0 L 3.25 -19.578125 L 18.71875 -19.578125 L 18.71875 -17.375 L 5.859375 -17.375 L 5.859375 -11.015625 L 17.734375 -11.015625 L 17.734375 -8.859375 L 5.859375 -8.859375 L 5.859375 -2.1875 L 18.71875 -2.1875 L 18.71875 0 Z M 3.25 0 "/></g></g></g><g fill="#7b0505" fill-opacity="1"><g transform="translate(313.660026, 28.54035)"><g/></g></g><g fill="#7b0505" fill-opacity="1"><g transform="translate(321.072942, 28.54035)"><g><path d="M 2.359375 0 L 2.359375 -3.140625 L 5.640625 -3.140625 L 5.640625 0 Z M 2.359375 0 "/></g></g></g><g fill="#7b0505" fill-opacity="1"><g transform="translate(327.51412, 28.54035)"><g/></g></g><g fill="#7b0505" fill-opacity="1"><g transform="translate(334.927036, 28.54035)"><g><path d="M 9.21875 0 L 9.21875 -17.328125 L 0.28125 -17.328125 L 0.28125 -19.578125 L 20.828125 -19.578125 L 20.828125 -17.328125 L 11.890625 -17.328125 L 11.890625 0 Z M 9.21875 0 "/></g></g></g><g fill="#7b0505" fill-opacity="1"><g transform="translate(354.472977, 28.54035)"><g><path d="M 3.25 0 L 3.25 -19.578125 L 13.21875 -19.578125 C 15.75 -19.578125 17.6875 -19.101562 19.03125 -18.15625 C 20.375 -17.21875 21.046875 -15.835938 21.046875 -14.015625 C 21.046875 -12.847656 20.753906 -11.847656 20.171875 -11.015625 C 19.585938 -10.191406 18.742188 -9.550781 17.640625 -9.09375 C 16.546875 -8.632812 15.210938 -8.378906 13.640625 -8.328125 L 13.90625 -8.546875 L 14.5 -8.53125 C 15.25 -8.488281 15.921875 -8.289062 16.515625 -7.9375 C 17.109375 -7.582031 17.664062 -7.046875 18.1875 -6.328125 L 22.546875 0 L 19.515625 0 L 15.40625 -6.109375 C 15.050781 -6.609375 14.695312 -7 14.34375 -7.28125 C 14 -7.570312 13.566406 -7.769531 13.046875 -7.875 C 12.523438 -7.988281 11.859375 -8.046875 11.046875 -8.046875 L 5.90625 -8.046875 L 5.90625 0 Z M 5.90625 -10.140625 L 13.015625 -10.140625 C 14.890625 -10.140625 16.25 -10.441406 17.09375 -11.046875 C 17.945312 -11.660156 18.375 -12.585938 18.375 -13.828125 C 18.375 -15.085938 17.941406 -16 17.078125 -16.5625 C 16.222656 -17.125 14.851562 -17.40625 12.96875 -17.40625 L 5.90625 -17.40625 Z M 5.90625 -10.140625 "/></g></g></g><g fill="#7b0505" fill-opacity="1"><g transform="translate(376.156741, 28.54035)"><g><path d="M 0.828125 0 L 11.5 -19.578125 L 13.9375 -19.578125 L 24.59375 0 L 21.765625 0 L 18.765625 -5.578125 L 20.15625 -4.796875 L 5.21875 -4.796875 L 6.640625 -5.578125 L 3.609375 0 Z M 12.65625 -16.96875 L 7.046875 -6.390625 L 6.140625 -6.96875 L 19.234375 -6.96875 L 18.328125 -6.390625 L 12.75 -16.96875 Z M 12.65625 -16.96875 "/></g></g></g><g fill="#7b0505" fill-opacity="1"><g transform="translate(400.033905, 28.54035)"><g><path d="M 3.25 0 L 3.25 -19.578125 L 5.53125 -19.578125 L 20.875 -3.296875 L 20.484375 -3.296875 L 20.484375 -19.578125 L 23.078125 -19.578125 L 23.078125 0 L 20.734375 0 L 5.46875 -16.25 L 5.828125 -16.25 L 5.828125 0 Z M 3.25 0 "/></g></g></g><g fill="#7b0505" fill-opacity="1"><g transform="translate(424.79952, 28.54035)"><g><path d="M 11.109375 0.25 C 9.867188 0.25 8.671875 0.15625 7.515625 -0.03125 C 6.367188 -0.21875 5.3125 -0.492188 4.34375 -0.859375 C 3.375 -1.234375 2.519531 -1.695312 1.78125 -2.25 L 2.828125 -4.328125 C 3.679688 -3.773438 4.535156 -3.328125 5.390625 -2.984375 C 6.253906 -2.640625 7.160156 -2.394531 8.109375 -2.25 C 9.066406 -2.101562 10.09375 -2.03125 11.1875 -2.03125 C 13.164062 -2.03125 14.695312 -2.296875 15.78125 -2.828125 C 16.863281 -3.367188 17.40625 -4.164062 17.40625 -5.21875 C 17.40625 -5.90625 17.226562 -6.441406 16.875 -6.828125 C 16.53125 -7.210938 16.023438 -7.507812 15.359375 -7.71875 C 14.703125 -7.925781 13.90625 -8.09375 12.96875 -8.21875 L 8.53125 -8.796875 C 6.363281 -9.097656 4.78125 -9.679688 3.78125 -10.546875 C 2.789062 -11.421875 2.296875 -12.597656 2.296875 -14.078125 C 2.296875 -15.265625 2.664062 -16.285156 3.40625 -17.140625 C 4.15625 -18.003906 5.191406 -18.664062 6.515625 -19.125 C 7.835938 -19.59375 9.382812 -19.828125 11.15625 -19.828125 C 12.3125 -19.828125 13.394531 -19.726562 14.40625 -19.53125 C 15.425781 -19.332031 16.359375 -19.039062 17.203125 -18.65625 C 18.054688 -18.269531 18.816406 -17.789062 19.484375 -17.21875 L 18.4375 -15.15625 C 17.382812 -16.007812 16.273438 -16.617188 15.109375 -16.984375 C 13.941406 -17.359375 12.597656 -17.546875 11.078125 -17.546875 C 9.816406 -17.546875 8.726562 -17.414062 7.8125 -17.15625 C 6.894531 -16.894531 6.195312 -16.519531 5.71875 -16.03125 C 5.238281 -15.539062 5 -14.925781 5 -14.1875 C 5 -13.28125 5.320312 -12.59375 5.96875 -12.125 C 6.613281 -11.664062 7.660156 -11.335938 9.109375 -11.140625 L 13.40625 -10.515625 C 15.632812 -10.222656 17.300781 -9.671875 18.40625 -8.859375 C 19.519531 -8.046875 20.078125 -6.867188 20.078125 -5.328125 C 20.078125 -4.179688 19.71875 -3.1875 19 -2.34375 C 18.289062 -1.5 17.265625 -0.851562 15.921875 -0.40625 C 14.578125 0.03125 12.972656 0.25 11.109375 0.25 Z M 11.109375 0.25 "/></g></g></g><g fill="#7b0505" fill-opacity="1"><g transform="translate(444.845216, 28.54035)"><g><path d="M 3.25 0 L 3.25 -19.578125 L 18.46875 -19.578125 L 18.46875 -17.375 L 5.90625 -17.375 L 5.90625 -10.9375 L 17.734375 -10.9375 L 17.734375 -8.75 L 5.90625 -8.75 L 5.90625 0 Z M 3.25 0 "/></g></g></g><g fill="#7b0505" fill-opacity="1"><g transform="translate(462.197756, 28.54035)"><g><path d="M 13.4375 0.25 C 11.71875 0.25 10.171875 0.0195312 8.796875 -0.4375 C 7.429688 -0.90625 6.257812 -1.570312 5.28125 -2.4375 C 4.3125 -3.3125 3.566406 -4.363281 3.046875 -5.59375 C 2.535156 -6.820312 2.28125 -8.21875 2.28125 -9.78125 C 2.28125 -11.3125 2.535156 -12.695312 3.046875 -13.9375 C 3.566406 -15.175781 4.3125 -16.234375 5.28125 -17.109375 C 6.257812 -17.992188 7.4375 -18.664062 8.8125 -19.125 C 10.195312 -19.59375 11.738281 -19.828125 13.4375 -19.828125 C 15.144531 -19.828125 16.679688 -19.585938 18.046875 -19.109375 C 19.421875 -18.640625 20.59375 -17.972656 21.5625 -17.109375 C 22.53125 -16.253906 23.273438 -15.207031 23.796875 -13.96875 C 24.316406 -12.726562 24.578125 -11.335938 24.578125 -9.796875 C 24.578125 -8.242188 24.316406 -6.851562 23.796875 -5.625 C 23.273438 -4.394531 22.53125 -3.335938 21.5625 -2.453125 C 20.59375 -1.578125 19.421875 -0.90625 18.046875 -0.4375 C 16.679688 0.0195312 15.144531 0.25 13.4375 0.25 Z M 13.4375 -2.046875 C 15.15625 -2.046875 16.640625 -2.351562 17.890625 -2.96875 C 19.140625 -3.582031 20.101562 -4.46875 20.78125 -5.625 C 21.457031 -6.78125 21.796875 -8.171875 21.796875 -9.796875 C 21.796875 -11.429688 21.460938 -12.828125 20.796875 -13.984375 C 20.128906 -15.140625 19.171875 -16.015625 17.921875 -16.609375 C 16.671875 -17.210938 15.175781 -17.515625 13.4375 -17.515625 C 11.675781 -17.515625 10.175781 -17.207031 8.9375 -16.59375 C 7.695312 -15.988281 6.738281 -15.109375 6.0625 -13.953125 C 5.382812 -12.796875 5.046875 -11.40625 5.046875 -9.78125 C 5.046875 -8.144531 5.378906 -6.753906 6.046875 -5.609375 C 6.710938 -4.460938 7.675781 -3.582031 8.9375 -2.96875 C 10.195312 -2.351562 11.695312 -2.046875 13.4375 -2.046875 Z M 13.4375 -2.046875 "/></g></g></g><g fill="#7b0505" fill-opacity="1"><g transform="translate(487.4909, 28.54035)"><g><path d="M 3.25 0 L 3.25 -19.578125 L 13.21875 -19.578125 C 15.75 -19.578125 17.6875 -19.101562 19.03125 -18.15625 C 20.375 -17.21875 21.046875 -15.835938 21.046875 -14.015625 C 21.046875 -12.847656 20.753906 -11.847656 20.171875 -11.015625 C 19.585938 -10.191406 18.742188 -9.550781 17.640625 -9.09375 C 16.546875 -8.632812 15.210938 -8.378906 13.640625 -8.328125 L 13.90625 -8.546875 L 14.5 -8.53125 C 15.25 -8.488281 15.921875 -8.289062 16.515625 -7.9375 C 17.109375 -7.582031 17.664062 -7.046875 18.1875 -6.328125 L 22.546875 0 L 19.515625 0 L 15.40625 -6.109375 C 15.050781 -6.609375 14.695312 -7 14.34375 -7.28125 C 14 -7.570312 13.566406 -7.769531 13.046875 -7.875 C 12.523438 -7.988281 11.859375 -8.046875 11.046875 -8.046875 L 5.90625 -8.046875 L 5.90625 0 Z M 5.90625 -10.140625 L 13.015625 -10.140625 C 14.890625 -10.140625 16.25 -10.441406 17.09375 -11.046875 C 17.945312 -11.660156 18.375 -12.585938 18.375 -13.828125 C 18.375 -15.085938 17.941406 -16 17.078125 -16.5625 C 16.222656 -17.125 14.851562 -17.40625 12.96875 -17.40625 L 5.90625 -17.40625 Z M 5.90625 -10.140625 "/></g></g></g><g fill="#7b0505" fill-opacity="1"><g transform="translate(509.563359, 28.54035)"><g><path d="M 3.296875 0 L 3.296875 -19.578125 L 5.96875 -19.578125 L 15.46875 -5.28125 L 14.796875 -5.28125 L 24.265625 -19.578125 L 26.9375 -19.578125 L 26.9375 0 L 24.40625 0 L 24.40625 -16.1875 L 24.734375 -16.1875 L 16.015625 -3.046875 L 14.265625 -3.046875 L 5.4375 -16.21875 L 5.828125 -16.21875 L 5.828125 0 Z M 3.296875 0 "/></g></g></g></g></g></svg>